<svg width="25" height="25" viewBox="0 0 25 25" fill="none" xmlns="http://www.w3.org/2000/svg">
<path d="M9.89583 16.6667C8.00347 16.6667 6.40208 16.0111 5.09167 14.7C3.78125 13.3889 3.12569 11.7875 3.125 9.89583C3.12431 8.00417 3.77986 6.40278 5.09167 5.09167C6.40347 3.78056 8.00486 3.125 9.89583 3.125C11.7868 3.125 13.3885 3.78056 14.701 5.09167C16.0135 6.40278 16.6688 8.00417 16.6667 9.89583C16.6667 10.6597 16.5451 11.3802 16.3021 12.0573C16.059 12.7344 15.7292 13.3333 15.3125 13.8542L21.1458 19.6875C21.3368 19.8785 21.4323 20.1215 21.4323 20.4167C21.4323 20.7118 21.3368 20.9549 21.1458 21.1458C20.9549 21.3368 20.7118 21.4323 20.4167 21.4323C20.1215 21.4323 19.8785 21.3368 19.6875 21.1458L13.8542 15.3125C13.3333 15.7292 12.7344 16.059 12.0573 16.3021C11.3802 16.5451 10.6597 16.6667 9.89583 16.6667ZM9.89583 14.5833C11.1979 14.5833 12.3049 14.1278 13.2167 13.2167C14.1285 12.3056 14.584 11.1986 14.5833 9.89583C14.5826 8.59306 14.1271 7.48646 13.2167 6.57604C12.3063 5.66563 11.1993 5.20972 9.89583 5.20833C8.59236 5.20694 7.48576 5.66285 6.57604 6.57604C5.66632 7.48924 5.21042 8.59583 5.20833 9.89583C5.20625 11.1958 5.66215 12.3028 6.57604 13.2167C7.48993 14.1306 8.59653 14.5861 9.89583 14.5833Z" fill="black"/>
</svg>
